# xmcd
#
# Track frame offsets:
# 150
# 7945
# 37891
# 62106
# 91955
# 117017
# 153270
# 169883
# 244802
#
# Disc length: 3690 seconds
#
#
# Revision: 0
# Processed by: cddbd v1.5.2PL0 Copyright (c) Steve Scherf et al.
# Submitted via: FreeRIP 2.945 
#
DISCID=620e6809
DTITLE=Poppa Chubby - One night live in New York City
DYEAR=1999
DGENRE=Blues
TTITLE0=Intro
TTITLE1=The Real Thing
TTITLE2=Lie down with the blues
TTITLE3=Nobody Knows you
TTITLE4=Shakedown
TTITLE5=Arlita
TTITLE6=Walk on the Wild side
TTITLE7=New York City Blues
TTITLE8=What's your Problem - Pipeline
EXTD=
EXTT0=
EXTT1=
EXTT2=
EXTT3=
EXTT4=
EXTT5=
EXTT6=
EXTT7=
EXTT8=
PLAYORDER=
